<svg xmlns="http://www.w3.org/2000/svg" viewBox="0 0 64 64" width="64" height="64">
<defs>
<radialGradient id="sky" cx="34%" cy="30%" r="80%"><stop offset="0%" stop-color="#12101c"/><stop offset="100%" stop-color="#08070e"/></radialGradient>
<radialGradient id="orb" cx="34%" cy="30%" r="78%"><stop offset="0%" stop-color="#241a10"/><stop offset="62%" stop-color="#140f0a"/><stop offset="100%" stop-color="#050409"/></radialGradient>
</defs>
<rect x="0" y="0" width="64" height="64" rx="14" fill="url(#sky)"/>
<circle cx="32.0" cy="32.0" r="25.5" fill="url(#orb)"/>
<circle cx="34.19" cy="32.00" r="1.02" fill="#ddb55f"/>
<circle cx="29.21" cy="29.44" r="1.05" fill="#e7c677"/>
<circle cx="32.43" cy="36.87" r="1.07" fill="#d7ab50"/>
<circle cx="35.52" cy="27.41" r="1.10" fill="#e2bd69"/>
<circle cx="25.54" cy="33.14" r="1.13" fill="#e5c271"/>
<circle cx="38.12" cy="35.89" r="1.15" fill="#d09f40"/>
<circle cx="29.95" cy="24.39" r="1.18" fill="#ecce82"/>
<circle cx="28.10" cy="39.51" r="1.21" fill="#d6a94e"/>
<circle cx="40.47" cy="28.91" r="1.23" fill="#d7aa50"/>
<circle cx="23.19" cy="28.36" r="1.26" fill="#edd084"/>
<circle cx="36.25" cy="41.07" r="1.29" fill="#c7922f"/>
<circle cx="35.14" cy="22.00" r="1.31" fill="#e7c676"/>
<circle cx="22.54" cy="37.48" r="1.34" fill="#deb761"/>
<circle cx="43.09" cy="34.44" r="1.37" fill="#c8922f"/>
<circle cx="25.23" cy="22.37" r="1.39" fill="#f1d88f"/>
<circle cx="30.44" cy="44.07" r="1.42" fill="#c8922f"/>
<circle cx="41.60" cy="23.91" r="1.45" fill="#d9af56"/>
<circle cx="19.08" cy="31.47" r="1.47" fill="#eaca7c"/>
<circle cx="41.43" cy="41.38" r="1.50" fill="#b18029"/>
<circle cx="31.37" cy="18.36" r="1.52" fill="#eed186"/>
<circle cx="23.03" cy="42.75" r="1.55" fill="#d1a143"/>
<circle cx="46.21" cy="30.09" r="1.58" fill="#c6912e"/>
<circle cx="19.96" cy="23.62" r="1.60" fill="#f2d991"/>
<circle cx="35.29" cy="46.62" r="1.63" fill="#ab7c28"/>
<circle cx="39.61" cy="18.72" r="1.66" fill="#e0ba66"/>
<circle cx="17.13" cy="36.75" r="1.68" fill="#e0ba65"/>
<circle cx="46.45" cy="38.68" r="1.71" fill="#a57726"/>
<circle cx="25.74" cy="17.04" r="1.74" fill="#f3da92"/>
<circle cx="26.41" cy="47.53" r="1.76" fill="#ba872b"/>
<circle cx="46.86" cy="24.19" r="1.79" fill="#cc9835"/>
<circle cx="15.49" cy="27.65" r="1.82" fill="#edd185"/>
<circle cx="41.38" cy="46.60" r="1.84" fill="#936921"/>
<circle cx="34.99" cy="14.63" r="1.87" fill="#e8c878"/>
<circle cx="17.85" cy="42.96" r="1.90" fill="#d1a041"/>
<circle cx="50.10" cy="33.50" r="1.92" fill="#a37525"/>
<circle cx="19.49" cy="18.48" r="1.95" fill="#f4dc94"/>
<circle cx="32.09" cy="50.68" r="1.98" fill="#986c23"/>
<circle cx="44.72" cy="17.98" r="2.00" fill="#d3a548"/>
<circle cx="12.90" cy="33.77" r="2.03" fill="#e2be6b"/>
<circle cx="47.48" cy="43.75" r="2.06" fill="#855e1e"/>
<circle cx="28.48" cy="12.64" r="2.08" fill="#eed288"/>
<circle cx="21.39" cy="48.86" r="2.11" fill="#b38129"/>
<circle cx="51.44" cy="26.67" r="2.14" fill="#ab7b27"/>
<circle cx="13.86" cy="22.69" r="2.16" fill="#efd489"/>
<circle cx="39.17" cy="51.34" r="2.19" fill="#855e1e"/>
<circle cx="39.86" cy="12.68" r="2.22" fill="#dcb45d"/>
<circle cx="12.95" cy="41.03" r="2.24" fill="#d1a143"/>
<circle cx="52.36" cy="38.28" r="2.27" fill="#855e1e"/>
<circle cx="32.0" cy="32.0" r="25.5" fill="none" stroke="#c9932f" stroke-opacity="0.55" stroke-width="1.1"/>
<polygon points="50.3,42.8 58.8,46.3 50.3,49.8" fill="#d85138"/>
</svg>